<svg width="200" height="264" viewBox="0 0 200 264" fill="none" xmlns="http://www.w3.org/2000/svg">
<path d="M199.286 166.13C198.872 238.848 154.246 263.996 99.3803 263.701C98.1059 263.694 96.8377 263.673 95.5757 263.639C93.0333 263.572 90.5176 263.446 88.0288 263.26C38.5302 259.586 0.206911 232.689 0.592166 165.061C0.99086 95.074 93.5302 7.24742 100.47 0.75409C100.476 0.75409 100.476 0.754124 100.482 0.748257C100.746 0.500785 100.88 0.377045 100.88 0.377045C100.88 0.377045 199.701 93.4172 199.286 166.13Z" fill="#5DB2A5"/>
<path d="M97.2238 252.183L133.84 203.038L97.1014 257.599L96.9717 263.264C94.4292 263.197 91.9136 263.071 89.4248 262.885L93.7538 190.158L93.7266 189.595L93.7942 189.489L94.2054 182.617L58 127.527L94.3445 177.468L94.4276 178.926L97.6981 123.978L66.7592 67.0855L98.1372 114.32L101.866 0.379152L101.88 0L101.878 0.373318L100.854 90.239L132.172 54.779L100.675 97.9778L99.572 147.189L128.908 100.115L99.4149 154.424L98.8017 181.788L141.359 116.272L98.5828 191.334L97.2238 252.183Z" fill="#3F3D56"/>
</svg>
