<svg width="516" height="414" viewBox="0 0 516 414" fill="none" xmlns="http://www.w3.org/2000/svg">
<path d="M92.2957 186.843L82.304 175.928L93.0163 165.746L103.008 176.662L92.2957 186.843ZM83.8966 175.984L92.3511 185.22L101.415 176.605L92.9608 167.369L83.8966 175.984Z" fill="#F0F0F0"/>
<g filter="url(#filter0_d)">
<rect x="4.5" y="0.5" width="506.635" height="404.567" stroke="black" shape-rendering="crispEdges"/>
</g>
<path d="M427.419 199.143C427.407 235.544 418.252 271.224 400.977 302.199C383.702 333.174 358.987 358.223 329.593 374.548C328.089 375.386 326.569 376.2 325.034 376.99C285.358 397.369 240.29 400.857 198.439 386.787C194.331 385.398 190.289 383.852 186.311 382.149C149.933 366.573 119.211 338.152 98.908 301.289C78.6047 264.427 69.8532 221.181 74.0095 178.254C78.1658 135.328 94.998 95.1167 121.897 63.8532C148.797 32.5896 184.262 12.019 222.796 5.32921C231.866 3.77584 241.03 2.99715 250.208 3.00001C348.08 3.00001 427.419 90.8149 427.419 199.143Z" fill="#F2F2F2"/>
<path d="M447.576 227.68C473.994 195.933 487.587 148.402 473.343 108.224C452.358 149.01 419.014 180.265 379.213 196.46C363.843 202.644 346.165 207.751 337.816 223.316C332.621 233.001 332.253 245.123 334.607 256.08C336.962 267.038 341.798 277.114 346.587 287.053L346.617 289.864C384.029 277.693 421.158 259.428 447.576 227.68Z" fill="#5DB2A5"/>
<path d="M472.549 112.757C468.064 148.136 453.622 181.051 431.274 206.827C426.456 212.318 421.137 217.423 414.988 221.005C408.97 224.446 402.23 226.04 395.467 225.623C389.155 225.374 382.723 224.31 376.466 225.763C369.87 227.296 364.651 232.01 361.266 238.368C357.123 246.148 355.753 255.111 354.689 263.927C353.507 273.717 352.42 283.905 347.369 292.331C346.757 293.352 348.224 294.343 348.835 293.324C357.622 278.665 354.661 259.947 360.585 244.142C363.349 236.768 368.138 230.27 375.304 228.036C381.57 226.083 388.203 227.174 394.593 227.487C401.302 227.816 407.689 226.904 413.832 223.759C420.116 220.543 425.627 215.657 430.55 210.327C441.634 198.149 450.92 184.118 458.066 168.748C466.309 151.256 471.789 132.333 474.267 112.796C474.42 111.586 472.701 111.556 472.549 112.757Z" fill="white"/>
<path d="M438.912 198.996C443.328 202.559 448.745 204.269 454.195 203.819C459.645 203.37 464.773 200.791 468.663 196.543C469.448 195.68 468.274 194.29 467.488 195.154C463.872 199.117 459.095 201.519 454.019 201.926C448.943 202.333 443.903 200.719 439.809 197.374C438.918 196.648 438.026 198.275 438.912 198.996V198.996Z" fill="white"/>
<path d="M398.653 226.216C396.824 214.017 399.215 201.504 405.351 191.171C405.96 190.148 404.493 189.156 403.885 190.178C397.518 200.944 395.053 213.972 396.982 226.661C397.167 227.87 398.837 227.418 398.653 226.216Z" fill="white"/>
<path d="M464.036 151.074C462.068 150.09 460.351 148.58 459.041 146.68C457.73 144.779 456.866 142.548 456.527 140.187C456.357 138.976 454.687 139.429 454.856 140.633C455.242 143.239 456.199 145.702 457.643 147.805C459.086 149.908 460.974 151.588 463.139 152.697C463.336 152.821 463.567 152.857 463.786 152.798C464.006 152.74 464.197 152.591 464.321 152.382C464.439 152.167 464.475 151.908 464.422 151.664C464.368 151.419 464.23 151.207 464.036 151.074Z" fill="white"/>
<path d="M351.284 62.0838C351.371 62.8435 351.458 63.6032 351.534 64.3739C352.658 74.5945 353.029 84.8991 352.645 95.1862C352.627 95.9821 352.597 96.7884 352.559 97.582C351.394 122.355 346.085 146.674 336.9 169.301C333.237 178.302 328.962 186.981 324.11 195.263C317.408 206.701 309.32 218.512 306.507 231.354C306.199 232.691 305.967 234.047 305.812 235.415L346.903 289.11C347.051 289.18 347.189 289.261 347.339 289.332L348.891 291.559C349.168 291.151 349.447 290.721 349.725 290.313C349.886 290.078 350.039 289.83 350.201 289.594C350.305 289.433 350.41 289.271 350.513 289.133C350.548 289.079 350.583 289.025 350.607 288.982C350.71 288.843 350.792 288.702 350.884 288.574C352.453 286.178 354.009 283.765 355.553 281.336C355.564 281.326 355.564 281.326 355.566 281.303C367.286 262.762 377.71 242.974 385.09 222.064C385.312 221.435 385.545 220.796 385.748 220.142C389.027 210.697 391.604 200.97 393.451 191.06C394.447 185.63 395.194 180.147 395.689 174.634C396.943 160.385 396.164 146.006 393.382 132.024C387.831 104.153 374.288 78.5574 352.926 63.2367C352.379 62.8451 351.841 62.4649 351.284 62.0838Z" fill="#5DB2A5"/>
<path d="M347.373 63.3585C363.037 94.5947 369.41 130.5 365.588 165.973C364.727 173.567 363.257 181.188 360.296 188.146C357.363 194.904 352.848 200.668 347.222 204.842C342.046 208.85 336.332 212.286 332.127 217.616C327.694 223.235 326.091 230.477 326.846 237.81C327.771 246.782 331.552 254.851 335.498 262.6C339.88 271.204 344.554 280.064 345.104 290.157C345.171 291.38 346.881 291.194 346.815 289.972C345.857 272.412 333.311 259.44 329.444 242.874C327.64 235.143 327.929 226.764 332.435 220.206C336.376 214.47 342.265 210.921 347.538 206.913C353.074 202.705 357.677 197.72 360.871 191.116C364.139 184.36 365.881 176.787 366.913 169.25C369.139 152.14 368.921 134.75 366.266 117.716C363.333 98.2558 357.414 79.4947 348.766 62.2439C348.23 61.1765 346.841 62.2981 347.373 63.3586V63.3585Z" fill="white"/>
<path d="M367.426 158.95C372.89 158.852 378.145 156.607 382.252 152.616C386.359 148.626 389.051 143.149 389.846 137.165C390.004 135.953 388.31 135.626 388.153 136.839C387.421 142.413 384.913 147.514 381.082 151.222C377.251 154.929 372.348 156.998 367.26 157.056C366.154 157.071 366.327 158.964 367.426 158.95Z" fill="white"/>
<path d="M350.088 207.511C341.992 198.99 337.095 187.405 336.374 175.066C336.303 173.844 334.593 174.029 334.663 175.25C335.436 188.089 340.554 200.134 348.996 208.98C349.801 209.823 350.889 208.349 350.088 207.511L350.088 207.511Z" fill="white"/>
<path d="M361.419 103.944C359.312 104.47 357.12 104.408 355.04 103.764C352.96 103.12 351.057 101.914 349.502 100.255C348.707 99.4019 347.62 100.876 348.41 101.724C350.136 103.549 352.239 104.877 354.536 105.594C356.833 106.311 359.253 106.395 361.586 105.837C361.81 105.805 362.014 105.68 362.157 105.487C362.301 105.294 362.373 105.048 362.358 104.799C362.335 104.548 362.223 104.318 362.047 104.158C361.872 103.998 361.646 103.921 361.419 103.944H361.419Z" fill="white"/>
<path d="M86.0347 283.85C64.9578 258.521 54.1126 220.599 65.4765 188.544C82.2197 221.084 108.822 246.02 140.577 258.941C152.84 263.875 166.944 267.949 173.605 280.368C177.75 288.094 178.044 297.766 176.165 306.508C174.287 315.251 170.428 323.29 166.607 331.219L166.584 333.462C136.735 323.752 107.112 309.179 86.0347 283.85Z" fill="#5DB2A5"/>
<path d="M66.1109 188.715C69.6887 216.941 81.2109 243.202 99.0409 263.767C102.808 268.27 107.193 272.087 112.035 275.078C116.836 277.823 122.213 279.096 127.609 278.763C132.645 278.564 137.776 277.715 142.769 278.875C145.316 279.51 147.714 280.735 149.804 282.468C151.894 284.201 153.629 286.404 154.896 288.931C158.201 295.138 159.294 302.289 160.143 309.323C161.086 317.134 161.954 325.262 165.983 331.985C166.472 332.799 165.301 333.59 164.814 332.777C157.803 321.081 160.165 306.147 155.439 293.538C153.234 287.654 149.413 282.47 143.696 280.688C138.696 279.13 133.405 280 128.307 280.25C123.048 280.661 117.778 279.639 112.957 277.276C107.994 274.567 103.483 270.943 99.6184 266.559C90.7752 256.843 83.3672 245.649 77.6658 233.386C71.0887 219.431 66.7169 204.332 64.7396 188.745C64.6176 187.78 65.9895 187.756 66.1108 188.715L66.1109 188.715Z" fill="white"/>
<path d="M92.9475 257.519C89.424 260.362 85.1023 261.725 80.7543 261.367C76.4062 261.008 72.3148 258.951 69.2108 255.562C68.5849 254.873 69.5216 253.764 70.1484 254.454C73.0335 257.615 76.8448 259.532 80.8944 259.856C84.9439 260.181 88.965 258.893 92.2318 256.224C92.9424 255.645 93.654 256.943 92.9475 257.519Z" fill="white"/>
<path d="M125.067 279.235C126.527 269.503 124.618 259.52 119.723 251.276C119.237 250.459 120.408 249.668 120.893 250.484C125.972 259.073 127.939 269.467 126.4 279.591C126.253 280.556 124.921 280.195 125.067 279.235V279.235Z" fill="white"/>
<path d="M72.9022 219.285C74.4725 218.5 75.8421 217.295 76.8878 215.779C77.9335 214.263 78.6226 212.483 78.8933 210.599C79.0294 209.633 80.3616 209.994 80.2264 210.955C79.9186 213.034 79.1554 214.999 78.0034 216.677C76.8514 218.355 75.3457 219.695 73.6179 220.58C73.4613 220.678 73.2767 220.707 73.1016 220.661C72.9265 220.614 72.7741 220.495 72.6752 220.329C72.5812 220.157 72.5523 219.951 72.5948 219.755C72.6373 219.56 72.7478 219.391 72.9022 219.285Z" fill="white"/>
<path d="M165.562 152.191C165.493 152.798 165.423 153.404 165.362 154.019C164.466 162.173 164.17 170.394 164.476 178.602C164.491 179.237 164.514 179.88 164.545 180.513C165.474 200.278 169.71 219.68 177.038 237.733C179.96 244.914 183.372 251.838 187.243 258.446C192.589 267.572 199.042 276.995 201.287 287.241C201.532 288.307 201.717 289.389 201.841 290.48L169.058 333.32C168.939 333.376 168.829 333.441 168.71 333.497L167.472 335.274C167.25 334.949 167.027 334.606 166.806 334.281C166.677 334.093 166.556 333.895 166.427 333.707C166.343 333.578 166.259 333.449 166.177 333.339C166.149 333.296 166.122 333.253 166.102 333.218C166.02 333.108 165.955 332.995 165.881 332.893C164.63 330.981 163.388 329.056 162.156 327.118C162.148 327.11 162.148 327.11 162.146 327.092C152.795 312.299 144.478 296.512 138.591 279.829C138.414 279.327 138.227 278.817 138.065 278.296C135.449 270.76 133.394 263 131.92 255.093C131.125 250.761 130.53 246.386 130.135 241.987C129.134 230.619 129.755 219.147 131.975 207.992C136.404 185.756 147.209 165.334 164.252 153.111C164.688 152.799 165.117 152.495 165.562 152.191Z" fill="#5DB2A5"/>
<path d="M165.98 152.748C153.483 177.669 148.398 206.316 151.448 234.618C152.006 240.723 153.431 246.693 155.67 252.308C158.01 257.699 161.612 262.299 166.101 265.628C170.23 268.826 174.789 271.567 178.144 275.82C179.832 278.025 181.081 280.601 181.807 283.377C182.533 286.154 182.72 289.069 182.357 291.931C181.619 299.089 178.602 305.528 175.454 311.71C171.958 318.574 168.229 325.643 167.79 333.695C167.737 334.671 166.372 334.523 166.426 333.549C167.189 319.539 177.199 309.189 180.284 295.971C181.724 289.804 181.493 283.119 177.898 277.886C174.754 273.31 170.055 270.479 165.849 267.281C161.426 264.104 157.774 259.777 155.211 254.677C152.721 249.207 151.091 243.308 150.39 237.232C148.614 223.581 148.789 209.707 150.907 196.116C153.247 180.59 157.969 165.622 164.869 151.859C165.296 151.007 166.405 151.902 165.98 152.748H165.98Z" fill="white"/>
<path d="M149.981 225.569C145.622 225.49 141.429 223.699 138.152 220.515C134.876 217.332 132.728 212.962 132.093 208.188C131.968 207.221 133.319 206.96 133.445 207.928C134.028 212.375 136.029 216.445 139.086 219.403C142.143 222.361 146.054 224.012 150.114 224.058C150.996 224.069 150.858 225.58 149.981 225.569Z" fill="white"/>
<path d="M163.814 264.312C170.273 257.514 174.18 248.271 174.756 238.427C174.812 237.451 176.177 237.599 176.12 238.574C175.504 248.817 171.421 258.427 164.685 265.484C164.043 266.156 163.175 264.981 163.814 264.312Z" fill="white"/>
<path d="M154.773 181.683C156.455 182.102 158.203 182.053 159.863 181.539C161.523 181.026 163.041 180.064 164.282 178.74C164.916 178.059 165.783 179.236 165.153 179.912C163.776 181.368 162.098 182.428 160.265 183C158.433 183.572 156.502 183.638 154.641 183.194C154.462 183.168 154.299 183.068 154.185 182.914C154.07 182.76 154.013 182.564 154.025 182.365C154.043 182.165 154.132 181.981 154.272 181.854C154.413 181.726 154.593 181.665 154.773 181.683Z" fill="white"/>
<path d="M263.77 163.397C293.898 163.397 318.321 136.364 318.321 103.018C318.321 69.6712 293.898 42.6386 263.77 42.6386C233.642 42.6386 209.219 69.6712 209.219 103.018C209.219 136.364 233.642 163.397 263.77 163.397Z" fill="#2F2E41"/>
<path d="M265 174C294.271 174 318 152.062 318 125C318 97.938 294.271 76 265 76C235.729 76 212 97.938 212 125C212 152.062 235.729 174 265 174Z" fill="#9E616A"/>
<path d="M376.694 349.211C364.732 361.247 351.342 371.42 336.896 379.45L333.841 368.56L331.376 379.174L332.336 381.891C331.275 382.443 330.204 382.974 329.133 383.495C328.22 383.945 327.306 384.384 326.392 384.813C292.931 400.371 255.973 404.235 220.472 395.887C219.54 395.672 218.617 395.448 217.694 395.213C213.66 394.191 209.673 393.006 205.741 391.688L211.242 369.05L206.351 341.682L193.614 387.05C179.155 380.856 165.495 372.585 152.984 362.451C156.898 334.449 161.485 300.839 164.318 277.578C165.343 269.078 166.137 261.968 166.58 257.003C166.939 252.35 167.762 247.756 169.035 243.304C169.659 241.151 170.46 239.065 171.425 237.072C171.628 236.633 171.85 236.214 172.071 235.805C172.284 235.407 172.505 235.029 172.736 234.661C178.403 225.314 185.676 225.886 185.676 225.886L207.384 221.197L214.168 219.726L216.928 219.133L220.306 218.398C222.886 217.841 225.332 216.691 227.486 215.023C229.641 213.355 231.455 211.205 232.812 208.713L242.033 191.765C243.987 188.182 246.868 185.332 250.302 183.582C250.718 183.378 251.142 183.184 251.567 183C253.442 182.223 255.418 181.785 257.419 181.703L270.469 181.141L275.749 180.906L282.957 180.599C284.658 180.524 286.36 180.71 288.015 181.151H288.024C288.606 181.304 289.16 181.478 289.723 181.692C294.083 183.322 297.752 186.666 300.032 191.091L306.475 203.595C307.924 206.408 309.946 208.807 312.379 210.604C314.813 212.4 317.592 213.544 320.494 213.944L322.968 214.281L325.746 214.669L332.77 215.639L345.599 217.417L345.627 217.958C348.082 218.173 355.078 219.767 359.767 230.83C360.081 231.556 360.376 232.332 360.662 233.139C362.304 238.045 363.35 243.17 363.773 248.381C363.8 248.606 363.819 248.831 363.837 249.055C365.406 266.759 371.489 311.903 376.694 349.211Z" fill="#2F2E41"/>
<path d="M272.167 395.509L271.291 400.035L268.586 399.391L269.391 395.24C271.929 382.143 273.075 368.762 272.806 355.37L269.408 186.055L269.343 183.01L269.306 181.161L270.709 181.131L272.075 181.1L272.214 188.128L275.575 355.675C275.844 369.054 274.7 382.423 272.167 395.509Z" fill="#A188BF"/>
<path d="M163.691 282.644L202.622 288.529L205.345 288.937L207.006 289.193L206.812 290.725L206.618 292.227L200.324 291.277L163.312 285.679L163.691 282.644Z" fill="#A188BF"/>
<path d="M279.874 183.96L275.749 180.906L270.709 181.131L270.469 181.141L269.343 183.01L269.408 186.055L272.214 188.128L275.767 190.754C276.17 191.054 276.623 191.263 277.099 191.369C277.575 191.475 278.065 191.477 278.542 191.373C279.018 191.269 279.472 191.062 279.876 190.764C280.28 190.466 280.627 190.083 280.897 189.636C281.168 189.189 281.355 188.688 281.45 188.16C281.545 187.633 281.545 187.09 281.45 186.563C281.355 186.036 281.167 185.535 280.896 185.088C280.626 184.641 280.279 184.258 279.874 183.96H279.874ZM279.358 188.496C279.154 188.831 278.865 189.093 278.528 189.247C278.19 189.4 277.819 189.44 277.461 189.361C277.103 189.281 276.774 189.086 276.517 188.8C276.259 188.514 276.083 188.149 276.013 187.753C275.942 187.357 275.979 186.946 276.119 186.573C276.258 186.199 276.495 185.88 276.799 185.656C277.102 185.432 277.459 185.312 277.824 185.312C278.189 185.312 278.546 185.432 278.85 185.656C279.256 185.959 279.538 186.428 279.633 186.96C279.728 187.492 279.629 188.045 279.358 188.496Z" fill="#A188BF"/>
<path d="M308.095 78.036C308.095 78.036 321.199 48.1319 292.369 45.4133C292.369 45.4133 267.792 18.7995 242.74 40.5479C242.74 40.5479 229.076 40.5479 221.604 59.0061C221.604 59.0061 210.857 54.1407 208.495 67.1618C208.495 67.1618 200.631 94.3474 208.495 118.814C216.359 143.282 218.971 146 218.971 146C218.971 146 206.049 94.7036 237.502 91.9849C268.955 89.2663 304.152 65.8025 306.774 95.7066C309.395 125.611 313.339 132.979 313.339 132.979C313.339 132.979 338.236 90.2696 308.095 78.036Z" fill="#2F2E41"/>
<path d="M55.1284 53C54.5078 53 54 53.9662 54 55.169C54 56.3718 54.5078 57.338 55.1284 57.338C55.749 57.338 56.2569 56.3718 56.2569 55.169C56.2569 53.9662 55.7491 53 55.1284 53Z" fill="#030303"/>
<path d="M43.1285 53C42.5078 53 42 53.9662 42 55.169C42 56.3718 42.5078 57.338 43.1285 57.338C43.7491 57.338 44.2569 56.3718 44.2569 55.169C44.2569 53.9662 43.7491 53 43.1285 53Z" fill="#030303"/>
<path d="M48.9692 18C42.8441 18 36.8565 19.9043 31.7636 23.4721C26.6708 27.0398 22.7014 32.1109 20.3574 38.0439C18.0134 43.9769 17.4001 50.5054 18.5951 56.8038C19.79 63.1022 22.7396 68.8877 27.0707 73.4286C31.4018 77.9696 36.92 81.062 42.9274 82.3148C48.9348 83.5676 55.1617 82.9246 60.8206 80.4671C66.4794 78.0096 71.3162 73.8479 74.7191 68.5084C78.122 63.1688 79.9383 56.8912 79.9383 50.4693C79.9383 41.8579 76.6755 33.5992 70.8677 27.5101C65.0598 21.4209 57.1827 18 48.9692 18ZM34.4876 49.3651L36.1991 39.8215C36.6411 37.2285 37.7883 35.1877 39.9417 35.1877H43.1765L43.3646 34.4088C43.5294 33.7293 43.9055 33.1268 44.4334 32.6965C44.9614 32.2662 45.611 32.0327 46.2797 32.0328H51.6398C52.3072 32.0325 52.9557 32.2647 53.4834 32.6931C54.0111 33.1214 54.388 33.7215 54.5549 34.399L54.743 35.1877H57.9966C60.103 35.1877 61.2221 37.1891 61.7487 39.8116V39.8215L63.4695 49.375C63.4832 49.4463 63.4777 49.5202 63.4537 49.5885C63.4297 49.6568 63.3881 49.7167 63.3335 49.7617C63.2789 49.8067 63.2135 49.8349 63.1446 49.8432C63.0756 49.8515 63.0058 49.8396 62.9429 49.8088L60.5544 48.6553C60.4981 48.6308 60.4487 48.5918 60.4109 48.5417C60.373 48.4917 60.348 48.4324 60.3381 48.3694L58.8147 39.93C58.5326 38.8455 58.1377 38.3525 57.3007 38.3525H40.647C39.8195 38.3525 39.3681 38.875 39.133 39.93L37.6096 48.3693C37.598 48.4317 37.5723 48.4902 37.5347 48.5399C37.4971 48.5897 37.4486 48.6293 37.3933 48.6553L35.0142 49.7989C34.9513 49.8288 34.8818 49.84 34.8132 49.8313C34.7447 49.8225 34.6797 49.7943 34.6254 49.7495C34.5711 49.7048 34.5295 49.6453 34.5052 49.5775C34.4809 49.5097 34.4749 49.4363 34.4876 49.3651ZM67.6541 55.5074L62.5104 68.9059C59.9244 68.9059 57.1785 66.7369 57.1785 66.7369C55.4858 67.6341 52.1852 68.4228 49.7215 68.5707C49.4582 68.5805 49.2042 68.5904 48.9692 68.5904C48.7341 68.5904 48.4802 68.5904 48.2169 68.5707C45.7531 68.4228 42.4525 67.6242 40.7598 66.7369C40.7598 66.7369 38.014 68.9059 35.428 68.9059L30.2842 55.5074C30.2049 55.297 30.1635 55.073 30.162 54.8468C30.1621 54.5065 30.2551 54.1734 30.4301 53.8869C30.6051 53.6004 30.8546 53.3724 31.1493 53.2299L48.6494 44.8003C48.748 44.7516 48.8555 44.7264 48.9644 44.7264C49.0734 44.7264 49.1809 44.7516 49.2795 44.8003L66.789 53.2299C67.0836 53.3724 67.3332 53.6004 67.5082 53.8869C67.6832 54.1734 67.7762 54.5065 67.7763 54.8468C67.7748 55.073 67.7334 55.297 67.6541 55.5074Z" fill="#030303"/>
<path d="M478.592 357H469.376C469.276 357 469.181 357.042 469.11 357.116C469.04 357.19 469 357.29 469 357.394V371.197C469 371.302 469.04 371.402 469.11 371.476C469.181 371.55 469.276 371.591 469.376 371.591H478.592C478.99 371.59 479.372 371.424 479.654 371.128C479.936 370.833 480.095 370.432 480.096 370.014V358.577C480.095 358.159 479.936 357.759 479.654 357.463C479.372 357.168 478.99 357.001 478.592 357Z" fill="#030303"/>
<path d="M478.076 372.007C477.646 372.044 477.236 372.209 476.892 372.483C476.549 372.756 476.287 373.127 476.139 373.552C475.99 373.976 475.96 374.436 476.053 374.878C476.146 375.32 476.357 375.724 476.662 376.044C476.967 376.364 477.353 376.585 477.774 376.682C478.195 376.78 478.634 376.748 479.039 376.592C479.444 376.436 479.797 376.162 480.059 375.802C480.32 375.442 480.477 375.012 480.512 374.561C480.538 374.219 480.492 373.875 480.379 373.553C480.266 373.23 480.087 372.938 479.856 372.695C479.624 372.452 479.345 372.265 479.038 372.147C478.731 372.028 478.403 371.98 478.076 372.007Z" fill="#030303"/>
<path d="M457.076 372.007C456.646 372.044 456.236 372.209 455.892 372.483C455.549 372.756 455.287 373.127 455.139 373.552C454.99 373.976 454.96 374.436 455.053 374.878C455.146 375.32 455.357 375.724 455.662 376.044C455.967 376.364 456.353 376.585 456.774 376.682C457.195 376.78 457.634 376.748 458.039 376.592C458.444 376.436 458.798 376.162 459.059 375.802C459.32 375.442 459.477 375.012 459.512 374.561C459.538 374.219 459.492 373.875 459.379 373.553C459.266 373.23 459.087 372.938 458.856 372.695C458.624 372.452 458.345 372.265 458.038 372.147C457.731 372.028 457.403 371.98 457.076 372.007Z" fill="#030303"/>
<path d="M465.72 357H456.523C456.12 357.002 455.733 357.17 455.448 357.47C455.162 357.769 455.001 358.174 455 358.597V369.994C455.001 370.417 455.162 370.823 455.448 371.122C455.733 371.421 456.12 371.59 456.523 371.591H465.72C465.82 371.591 465.915 371.55 465.986 371.476C466.056 371.402 466.096 371.302 466.096 371.197V357.394C466.096 357.29 466.056 357.19 465.986 357.116C465.915 357.042 465.82 357 465.72 357Z" fill="#030303"/>
<path d="M478.415 351.003H456.411C456.23 350.99 456.049 351.016 455.878 351.08C455.708 351.143 455.552 351.243 455.419 351.372C455.287 351.502 455.181 351.658 455.109 351.832C455.037 352.006 455 352.194 455 352.384C455 352.573 455.037 352.761 455.109 352.935C455.181 353.109 455.287 353.266 455.419 353.395C455.552 353.524 455.708 353.624 455.878 353.687C456.049 353.751 456.23 353.777 456.411 353.764H478.415C478.595 353.777 478.777 353.751 478.947 353.687C479.118 353.624 479.274 353.524 479.406 353.395C479.539 353.266 479.644 353.109 479.716 352.935C479.788 352.761 479.825 352.573 479.825 352.384C479.825 352.194 479.788 352.006 479.716 351.832C479.644 351.658 479.539 351.502 479.406 351.372C479.274 351.243 479.118 351.143 478.947 351.08C478.777 351.016 478.595 350.99 478.415 351.003Z" fill="#030303"/>
<path d="M466.969 331C460.844 331 454.856 332.904 449.764 336.472C444.671 340.04 440.701 345.111 438.357 351.044C436.013 356.977 435.4 363.505 436.595 369.804C437.79 376.102 440.74 381.888 445.071 386.429C449.402 390.97 454.92 394.062 460.927 395.315C466.935 396.568 473.162 395.925 478.821 393.467C484.479 391.01 489.316 386.848 492.719 381.508C496.122 376.169 497.938 369.891 497.938 363.469C497.938 354.858 494.676 346.599 488.868 340.51C483.06 334.421 475.183 331 466.969 331ZM482.015 376.681C482.012 377.726 481.615 378.727 480.91 379.466C480.205 380.205 479.25 380.621 478.253 380.624H455.685C454.688 380.621 453.733 380.205 453.028 379.466C452.324 378.727 451.926 377.726 451.923 376.681V349.469C451.926 348.633 452.244 347.832 452.807 347.241C453.371 346.65 454.135 346.317 454.933 346.314H479.006C479.803 346.317 480.567 346.65 481.131 347.241C481.695 347.832 482.013 348.633 482.015 349.469V376.681Z" fill="#030303"/>
<path d="M44.9692 335C38.844 335 32.8565 336.904 27.7636 340.472C22.6708 344.04 18.7014 349.111 16.3574 355.044C14.0134 360.977 13.4001 367.505 14.5951 373.804C15.79 380.102 18.7396 385.888 23.0707 390.429C27.4018 394.97 32.92 398.062 38.9274 399.315C44.9348 400.568 51.1617 399.925 56.8206 397.467C62.4794 395.01 67.3161 390.848 70.7191 385.508C74.122 380.169 75.9383 373.891 75.9383 367.469C75.9383 358.858 72.6755 350.599 66.8677 344.51C61.0598 338.421 53.1827 335 44.9692 335ZM59.2356 370.634C58.9159 370.634 57.8533 370.624 57.543 370.605L51.44 370.437C51.4084 370.436 51.377 370.444 51.349 370.459C51.3211 370.475 51.2973 370.498 51.2802 370.526L42.1211 384.881C41.9854 385.105 41.7979 385.289 41.5759 385.417C41.3539 385.544 41.1047 385.611 40.8516 385.61H38.6229C38.0963 385.61 37.9177 385.058 38.1058 384.545L42.8169 370.457C42.8278 370.427 42.8317 370.396 42.8285 370.365C42.8252 370.333 42.8148 370.304 42.7982 370.277C42.7816 370.251 42.7593 370.23 42.7331 370.215C42.7069 370.2 42.6776 370.191 42.6477 370.19L31.2035 369.924C31.0846 369.921 30.9667 369.948 30.859 370.001C30.7513 370.054 30.6568 370.132 30.5829 370.23L27.0377 374.735C26.8958 374.922 26.7156 375.073 26.5106 375.178C26.3055 375.282 26.0807 375.336 25.8529 375.337H24.2825C24.2223 375.338 24.1629 375.323 24.1092 375.294C24.0556 375.266 24.0092 375.224 23.9742 375.173C23.9391 375.122 23.9164 375.062 23.9078 375C23.8993 374.938 23.9052 374.874 23.9251 374.814L25.7964 368.041C25.9375 367.664 25.9375 367.245 25.7964 366.868L23.9251 360.095C23.9052 360.035 23.8993 359.972 23.9078 359.909C23.9164 359.847 23.9391 359.787 23.9742 359.736C24.0092 359.685 24.0556 359.643 24.1092 359.615C24.1629 359.586 24.2223 359.572 24.2825 359.572H25.8623C26.0905 359.571 26.316 359.624 26.5214 359.729C26.7268 359.833 26.9066 359.985 27.0471 360.174L30.5265 364.61C30.5997 364.709 30.6941 364.788 30.8019 364.841C30.9097 364.894 31.028 364.92 31.1471 364.916L42.6571 364.738C42.6872 364.738 42.7168 364.73 42.7434 364.715C42.7699 364.7 42.7925 364.679 42.8093 364.652C42.826 364.626 42.8363 364.596 42.8393 364.565C42.8422 364.533 42.8378 364.501 42.8264 364.472L38.1151 350.393C37.9271 349.881 38.1057 349.329 38.6324 349.329H40.861C41.114 349.329 41.3627 349.396 41.5845 349.524C41.8063 349.651 41.994 349.835 42.1305 350.058L51.2802 364.423C51.2965 364.452 51.3201 364.475 51.3483 364.491C51.3765 364.506 51.4082 364.514 51.44 364.512L57.543 364.344C57.8439 364.324 58.9159 364.314 59.2356 364.314C63.4108 364.314 66.0344 365.734 66.0344 367.479C66.0344 369.224 63.4014 370.634 59.2356 370.634Z" fill="#030303"/>
<path d="M442.189 54C440.761 53.9942 439.376 54.5078 438.27 55.4532C437.164 56.3985 436.405 57.717 436.122 59.1838C435.839 60.6506 436.051 62.1747 436.721 63.4961C437.391 64.8174 438.477 65.8542 439.794 66.4296C441.112 67.0049 442.579 67.0831 443.945 66.6508C445.312 66.2185 446.493 65.3025 447.287 64.0592C448.081 62.8158 448.439 61.322 448.3 59.8328C448.161 58.3436 447.533 56.9511 446.524 55.893C445.956 55.2932 445.281 54.8172 444.537 54.4923C443.793 54.1674 442.995 54.0001 442.189 54Z" fill="#030303"/>
<path d="M466.189 54C464.761 53.9942 463.376 54.5078 462.27 55.4532C461.164 56.3985 460.405 57.717 460.122 59.1838C459.839 60.6506 460.051 62.1747 460.721 63.4961C461.391 64.8174 462.477 65.8542 463.794 66.4296C465.112 67.0049 466.579 67.0831 467.945 66.6508C469.312 66.2185 470.493 65.3025 471.287 64.0592C472.081 62.8158 472.439 61.322 472.3 59.8328C472.161 58.3436 471.533 56.9511 470.524 55.893C469.957 55.2917 469.282 54.8147 468.538 54.4897C467.793 54.1647 466.995 53.9982 466.189 54Z" fill="#030303"/>
<path d="M453 18C447.067 18 441.266 19.9061 436.333 23.4772C431.399 27.0484 427.554 32.1242 425.284 38.0628C423.013 44.0014 422.419 50.536 423.576 56.8404C424.734 63.1448 427.591 68.9358 431.787 73.481C435.982 78.0262 441.328 81.1215 447.147 82.3755C452.967 83.6295 458.999 82.9859 464.48 80.5261C469.962 78.0662 474.648 73.9006 477.944 68.556C481.241 63.2114 483 56.9279 483 50.5C483 41.8805 479.839 33.614 474.213 27.519C468.587 21.4241 460.957 18 453 18ZM458.83 31.5526C459.211 31.5487 459.59 31.6272 459.943 31.7835C460.296 31.9398 460.617 32.1708 460.886 32.463C461.156 32.7552 461.369 33.1027 461.514 33.4852C461.658 33.8677 461.73 34.2776 461.727 34.6908C461.73 35.317 461.562 35.9303 461.243 36.4527C460.924 36.975 460.469 37.3828 459.936 37.6243C459.402 37.8658 458.815 37.93 458.248 37.8088C457.68 37.6875 457.159 37.3864 456.751 36.9435C456.342 36.5007 456.064 35.9362 455.952 35.3218C455.84 34.7074 455.899 34.0707 456.122 33.4929C456.345 32.9151 456.721 32.4221 457.204 32.0766C457.686 31.7311 458.252 31.5487 458.83 31.5526ZM441.094 69.4474C439.412 69.4483 437.767 68.9088 436.368 67.8969C434.969 66.885 433.878 65.4463 433.234 63.7628C432.59 62.0793 432.421 60.2266 432.749 58.4392C433.077 56.6517 433.887 55.0098 435.077 53.7212C436.266 52.4326 437.782 51.5551 439.432 51.1998C441.082 50.8445 442.792 51.0273 444.346 51.7252C445.9 52.423 447.228 53.6046 448.162 55.1203C449.096 56.636 449.594 58.4177 449.593 60.2401C449.586 62.6795 448.688 65.0167 447.096 66.7416C445.503 68.4665 443.346 69.4392 441.094 69.4474ZM454.458 51.0921V59.9737C454.458 60.3924 454.304 60.794 454.031 61.0901C453.757 61.3862 453.387 61.5526 453 61.5526C452.613 61.5526 452.243 61.3862 451.969 61.0901C451.696 60.794 451.543 60.3924 451.543 59.9737V53.4704C451.543 52.1776 450.085 51.8914 445.94 49.3059C445.403 48.9605 444.255 48.3487 444.255 46.6316C444.264 45.804 444.568 45.0122 445.102 44.421L451.634 37.602C451.943 37.2621 452.322 37.0048 452.739 36.8503C453.156 36.6957 453.601 36.6481 454.038 36.7113C454.475 36.7744 454.892 36.9465 455.258 37.2141C455.623 37.4817 455.926 37.8374 456.143 38.2533L458.83 44.1842H463.202C463.589 44.185 463.959 44.3517 464.231 44.6477C464.504 44.9437 464.657 45.3449 464.657 45.7631C464.657 46.1814 464.504 46.5826 464.231 46.8786C463.959 47.1746 463.589 47.3413 463.202 47.3421H457.974C456.999 47.3421 456.216 45.0724 454.512 42.2598L450.058 47.3421C451.688 48.7237 454.458 49.7895 454.458 51.0921ZM464.906 69.4375C463.225 69.4375 461.582 68.8975 460.184 67.8858C458.786 66.8741 457.697 65.4361 457.054 63.7537C456.411 62.0713 456.242 60.22 456.57 58.434C456.898 56.648 457.708 55.0074 458.896 53.7198C460.085 52.4321 461.599 51.5552 463.248 51.1999C464.896 50.8447 466.605 51.027 468.158 51.7239C469.711 52.4208 471.039 53.6009 471.973 55.115C472.906 56.6291 473.405 58.4092 473.405 60.2302C473.398 62.6698 472.5 65.0073 470.908 66.7323C469.315 68.4574 467.158 69.4298 464.906 69.4375Z" fill="#030303"/>
<defs>
<filter id="filter0_d" x="0" y="0" width="515.635" height="413.567" filterUnits="userSpaceOnUse" color-interpolation-filters="sRGB">
<feFlood flood-opacity="0" result="BackgroundImageFix"/>
<feColorMatrix in="SourceAlpha" type="matrix" values="0 0 0 0 0 0 0 0 0 0 0 0 0 0 0 0 0 0 127 0" result="hardAlpha"/>
<feOffset dy="4"/>
<feGaussianBlur stdDeviation="2"/>
<feComposite in2="hardAlpha" operator="out"/>
<feColorMatrix type="matrix" values="0 0 0 0 0 0 0 0 0 0 0 0 0 0 0 0 0 0 0.25 0"/>
<feBlend mode="normal" in2="BackgroundImageFix" result="effect1_dropShadow"/>
<feBlend mode="normal" in="SourceGraphic" in2="effect1_dropShadow" result="shape"/>
</filter>
</defs>
</svg>
